<svg width="432" height="128" viewBox="0 0 432 128" fill="none" xmlns="http://www.w3.org/2000/svg">
    <path
        d="M251.313 59.1261C262.221 58.7963 270.648 61.1013 280.363 65.3509C290.648 69.8507 311.547 85.4071 320.825 90.2504C331.568 95.8588 328.126 94.7621 341.47 99.2103C356.408 102.308 392.801 99.1491 385.914 115.919C384.751 121.732 363.899 119.735 363.899 119.735C256.882 118.056 167.286 117.737 64.483 115.75C54.2178 120.44 33.3057 124.48 25.6022 116.939C12.2561 117.751 5.76498 100.819 7.19422 89.8367C12.0942 87.1147 13.8398 88.7412 18.099 82.475C20.9185 75.844 23.1389 71.6597 25.3356 67.0797C27.2824 63.1141 30.8496 59.1291 33.4588 57.2348C42.4275 50.7227 53.7677 47.2781 63.9344 41.5056C108.764 23.3056 58.6978 66.6594 98.8714 71.8044C167.204 75.7347 195.93 15.0513 257.538 28.0023C274.11 30.8832 289.202 35.8034 302.847 43.4965C350.584 66.1222 368.712 91.1156 408.426 69.6068C440.332 46.9232 419.664 8.20378 400.021 7.19504C372.028 3.88432 350.083 43.6649 379.961 54.9776C384.178 56.5589 385.134 57.0525 389.298 57.0525"
        stroke="#38404D" stroke-width="13" stroke-linecap="round" />
    <path d="M27.793 89.9546C36.4859 89.228 37.5841 89.5698 45.2034 91.1646" stroke="#38404D" stroke-width="3"
        stroke-miterlimit="5.4" stroke-linecap="round" stroke-linejoin="round" />
    <path d="M27.5171 92.0636C38.8765 92.9112 36.3312 92.9571 44.6897 95.5183" stroke="#38404D" stroke-width="3"
        stroke-miterlimit="5.4" stroke-linecap="round" stroke-linejoin="round" />
    <path d="M27.2803 94.2507C34.9131 94.994 34.1889 95.8015 43.3253 100.285" stroke="#38404D" stroke-width="3"
        stroke-miterlimit="5.4" stroke-linecap="round" stroke-linejoin="round" />
</svg>